# xmcd CD database file
#
# Track frame offsets:
#	150
#	14125
#	24319
#	37578
#	47524
#	61030
#	68742
#	78888
#	92153
#	109656
#	129065
#	149093
#	161665
#	174708
#	188061
#	197584
#	206376
#	220246
#	234303
#	247361
#	259742
#	269974
#
# Disc length: 3799 seconds
#
# Revision: 0
# Processed by: cddbd v1.4PL0 Copyright (c) Steve Scherf et al.
# Submitted via: Feurio! 1.66 - http://www.feurio.com
#
DISCID=360ed516
DTITLE=Various Artist - Country Forever - CD 4
DYEAR=1998
DGENRE=Country
TTITLE0=Jennifer Weatherly - Ain't through lovin' you yet
TTITLE1=Buddy Knox - Devil woman
TTITLE2=Johnny Carver - Afternoon delight
TTITLE3=Glen Campbell - It's a good thing
TTITLE4=Dickey Lee - 9,999,999 Tears
TTITLE5=Susan Raye - (I've got a) Happy heart
TTITLE6=Freddy Weller - Indian lake
TTITLE7=Tony Adams-Rosa - Heart and soul
TTITLE8=Country Dance Kings - Gone country
TTITLE9=Jeff Turner - Play Ruby Play
TTITLE10=The Krüger Brothers - Golden ring
TTITLE11=Country Dance Kings - Wink
TTITLE12=Don Williams - Where do we go from here
TTITLE13=Mel McDaniel - Baby's got her blue jeans on
TTITLE14=Jerry Lee Lewis - Walk right in
TTITLE15=Bob Luman - Let's thinking about living
TTITLE16=Anthony Armstrong - Take a letter Maria
TTITLE17=Lacy J.Dalton - 16th Avenue
TTITLE18=Country Dance Kings - Easy come easy go
TTITLE19=La Costa Tucker - Get on my love train
TTITLE20=Jimmy C.Newman - A fallen star
TTITLE21=Noby's - California
EXTD=
EXTT0=
EXTT1=
EXTT2=
EXTT3=
EXTT4=
EXTT5=
EXTT6=
EXTT7=
EXTT8=
EXTT9=
EXTT10=
EXTT11=
EXTT12=
EXTT13=
EXTT14=
EXTT15=
EXTT16=
EXTT17=
EXTT18=
EXTT19=
EXTT20=
EXTT21=
PLAYORDER=
